<?xml version="1.0" encoding="utf-8"?>
<!-- Generator: Adobe Illustrator 27.5.0, SVG Export Plug-In . SVG Version: 6.00 Build 0)  -->
<svg version="1.1" xmlns="http://www.w3.org/2000/svg" xmlns:xlink="http://www.w3.org/1999/xlink" x="0px" y="0px"
	 viewBox="0 0 650 500" style="enable-background:new 0 0 650 500;" xml:space="preserve">
<g id="BACKGROUND">
	<rect style="fill:#FFFFFF;" width="650" height="500"/>
</g>
<g id="OBJECTS">
	<g>
		<g>
			
				<text transform="matrix(1 0 0 1 91.9907 408.6416)" style="fill:#020202; font-family:'AlfaSlabOne-Regular'; font-size:120.2879px;">NINJA</text>
			<g>
				
					<text transform="matrix(1 0 0 1 109.8628 437.2773)" style="fill:#DD2828; font-family:'Changa_446wght'; font-size:30.7868px; letter-spacing:12;">www.yourweb.com</text>
			</g>
		</g>
		<g>
			<g>
				<path style="fill:#DD2828;" d="M103.234,261.981c0-115.78,95.91-209.637,214.221-209.637s214.221,93.858,214.221,209.637
					H103.234z"/>
				
					<line style="fill:none;stroke:#000000;stroke-width:8.2707;stroke-linecap:round;stroke-miterlimit:10;" x1="103.234" y1="263.523" x2="531.677" y2="263.523"/>
				
					<line style="fill:none;stroke:#000000;stroke-width:8.2707;stroke-linecap:round;stroke-miterlimit:10;" x1="103.234" y1="278.64" x2="531.677" y2="278.64"/>
				
					<line style="fill:none;stroke:#000000;stroke-width:8.2707;stroke-linecap:round;stroke-miterlimit:10;" x1="103.234" y1="293.757" x2="531.677" y2="293.757"/>
			</g>
			<g>
				<g>
					<g>
						<g>
							<g>
								<path d="M353.028,290.736l-10.965,10.965L116.675,74.484c-2.536-2.536-2.536-6.649,0-9.185l1.78-1.78
									c2.536-2.537,6.649-2.537,9.185,0L353.028,290.736z"/>
								<path d="M116.675,74.484c-2.536-2.536-2.536-6.649,0-9.185l1.78-1.78c2.536-2.537,6.649-2.537,9.185,0L116.675,74.484z"/>
								<polygon points="355.807,287.957 339.284,304.48 214.779,178.146 231.303,161.623 								"/>
								
									<rect x="214.394" y="165.106" transform="matrix(0.7071 -0.7071 0.7071 0.7071 -55.2031 208.4482)" width="19.246" height="11.508"/>
								
									<rect x="198.5" y="162.368" transform="matrix(0.7071 -0.7071 0.7071 0.7071 -52.759 202.5469)" width="39.232" height="5.182"/>
								<g>
									
										<line style="fill:none;stroke:#FFFFFF;stroke-width:1.8653;stroke-linecap:round;stroke-miterlimit:10;" x1="202.591" y1="155.94" x2="215.603" y2="155.94"/>
									
										<line style="fill:none;stroke:#FFFFFF;stroke-width:1.8653;stroke-linecap:round;stroke-miterlimit:10;" x1="209.097" y1="149.434" x2="209.097" y2="162.446"/>
								</g>
								<g>
									
										<line style="fill:none;stroke:#FFFFFF;stroke-width:1.8653;stroke-linecap:round;stroke-miterlimit:10;" x1="193.709" y1="147.058" x2="206.721" y2="147.058"/>
									
										<line style="fill:none;stroke:#FFFFFF;stroke-width:1.8653;stroke-linecap:round;stroke-miterlimit:10;" x1="200.215" y1="140.552" x2="200.215" y2="153.564"/>
								</g>
								<g>
									
										<line style="fill:none;stroke:#FFFFFF;stroke-width:1.8653;stroke-linecap:round;stroke-miterlimit:10;" x1="184.827" y1="138.176" x2="197.839" y2="138.176"/>
									
										<line style="fill:none;stroke:#FFFFFF;stroke-width:1.8653;stroke-linecap:round;stroke-miterlimit:10;" x1="191.333" y1="131.67" x2="191.333" y2="144.682"/>
								</g>
								<g>
									
										<line style="fill:none;stroke:#FFFFFF;stroke-width:1.8653;stroke-linecap:round;stroke-miterlimit:10;" x1="175.945" y1="129.294" x2="188.957" y2="129.294"/>
									
										<line style="fill:none;stroke:#FFFFFF;stroke-width:1.8653;stroke-linecap:round;stroke-miterlimit:10;" x1="182.451" y1="122.788" x2="182.451" y2="135.8"/>
								</g>
								<g>
									
										<line style="fill:none;stroke:#FFFFFF;stroke-width:1.8653;stroke-linecap:round;stroke-miterlimit:10;" x1="167.063" y1="120.412" x2="180.075" y2="120.412"/>
									
										<line style="fill:none;stroke:#FFFFFF;stroke-width:1.8653;stroke-linecap:round;stroke-miterlimit:10;" x1="173.569" y1="113.906" x2="173.569" y2="126.918"/>
								</g>
								<g>
									
										<line style="fill:none;stroke:#FFFFFF;stroke-width:1.8653;stroke-linecap:round;stroke-miterlimit:10;" x1="158.18" y1="111.53" x2="171.193" y2="111.53"/>
									
										<line style="fill:none;stroke:#FFFFFF;stroke-width:1.8653;stroke-linecap:round;stroke-miterlimit:10;" x1="164.687" y1="105.024" x2="164.687" y2="118.036"/>
								</g>
								<g>
									
										<line style="fill:none;stroke:#FFFFFF;stroke-width:1.8653;stroke-linecap:round;stroke-miterlimit:10;" x1="149.298" y1="102.648" x2="162.311" y2="102.648"/>
									
										<line style="fill:none;stroke:#FFFFFF;stroke-width:1.8653;stroke-linecap:round;stroke-miterlimit:10;" x1="155.805" y1="96.142" x2="155.805" y2="109.154"/>
								</g>
								<g>
									
										<line style="fill:none;stroke:#FFFFFF;stroke-width:1.8653;stroke-linecap:round;stroke-miterlimit:10;" x1="140.417" y1="93.766" x2="153.429" y2="93.766"/>
									
										<line style="fill:none;stroke:#FFFFFF;stroke-width:1.8653;stroke-linecap:round;stroke-miterlimit:10;" x1="146.923" y1="87.26" x2="146.923" y2="100.272"/>
								</g>
								<g>
									
										<line style="fill:none;stroke:#FFFFFF;stroke-width:1.8653;stroke-linecap:round;stroke-miterlimit:10;" x1="131.535" y1="84.884" x2="144.547" y2="84.884"/>
									
										<line style="fill:none;stroke:#FFFFFF;stroke-width:1.8653;stroke-linecap:round;stroke-miterlimit:10;" x1="138.041" y1="78.378" x2="138.041" y2="91.39"/>
								</g>
								<g>
									
										<line style="fill:none;stroke:#FFFFFF;stroke-width:1.8653;stroke-linecap:round;stroke-miterlimit:10;" x1="122.652" y1="76.002" x2="135.665" y2="76.002"/>
									
										<line style="fill:none;stroke:#FFFFFF;stroke-width:1.8653;stroke-linecap:round;stroke-miterlimit:10;" x1="129.159" y1="69.496" x2="129.159" y2="82.508"/>
								</g>
							</g>
							<path style="fill:none;stroke:#000000;stroke-width:2.5392;stroke-miterlimit:10;" d="M116.37,70.619
								c-1.29,2.693-1.033,5.865-0.395,8.783c0.637,2.917,1.629,5.789,1.726,8.773c0.247,7.561-5.242,14.639-4.16,22.127"/>
							<path d="M105.773,112.597c-2.084,2.727-2.786,6.457-1.835,9.755c0.369,1.282,0.967,2.485,1.407,3.744
								c1.709,4.896,0.817,10.618-2.3,14.762c1.142-0.096,2.252-0.542,3.144-1.261c0.225,0.625,0.45,1.251,0.675,1.876
								c2.146-1.335,4.171-2.865,6.043-4.564c0.063,1.729,0.125,3.458,0.188,5.188c2.176-1.162,3.95-3.062,4.96-5.313
								c0.588,1.693,0.984,3.451,1.18,5.232c1.737-1.784,3.08-3.951,3.905-6.3c0.357,1.42,0.715,2.841,1.072,4.261
								c2.08-3.128,2.42-7.338,0.869-10.759c-0.434-0.957-1.007-1.864-1.259-2.884c-0.305-1.237-0.112-2.533-0.03-3.805
								c0.187-2.902-0.235-5.887-1.552-8.48C118.695,107.073,110.609,106.269,105.773,112.597z"/>
						</g>
						<g>
							<g>
								<path d="M283.847,287.964l10.965,10.966L518.431,74.484c2.536-2.536,2.536-6.649,0-9.185l-1.78-1.78
									c-2.536-2.537-6.649-2.537-9.185,0L283.847,287.964z"/>
								<path d="M518.431,74.484c2.536-2.536,2.536-6.649,0-9.185l-1.78-1.78c-2.536-2.537-6.649-2.537-9.185,0L518.431,74.484z"/>
								<polygon points="281.068,285.185 297.592,301.708 420.327,178.146 403.803,161.623 								"/>
								
									<rect x="401.467" y="165.106" transform="matrix(-0.7071 -0.7071 0.7071 -0.7071 580.9579 582.3602)" width="19.246" height="11.508"/>
								
									<rect x="397.374" y="162.368" transform="matrix(-0.7071 -0.7071 0.7071 -0.7071 595.2036 576.4595)" width="39.232" height="5.182"/>
								<g>
									
										<line style="fill:none;stroke:#FFFFFF;stroke-width:1.8653;stroke-linecap:round;stroke-miterlimit:10;" x1="432.516" y1="155.94" x2="419.503" y2="155.94"/>
									
										<line style="fill:none;stroke:#FFFFFF;stroke-width:1.8653;stroke-linecap:round;stroke-miterlimit:10;" x1="426.009" y1="149.434" x2="426.009" y2="162.446"/>
								</g>
								<g>
									
										<line style="fill:none;stroke:#FFFFFF;stroke-width:1.8653;stroke-linecap:round;stroke-miterlimit:10;" x1="441.397" y1="147.058" x2="428.385" y2="147.058"/>
									
										<line style="fill:none;stroke:#FFFFFF;stroke-width:1.8653;stroke-linecap:round;stroke-miterlimit:10;" x1="434.891" y1="140.552" x2="434.891" y2="153.564"/>
								</g>
								<g>
									
										<line style="fill:none;stroke:#FFFFFF;stroke-width:1.8653;stroke-linecap:round;stroke-miterlimit:10;" x1="450.28" y1="138.176" x2="437.267" y2="138.176"/>
									
										<line style="fill:none;stroke:#FFFFFF;stroke-width:1.8653;stroke-linecap:round;stroke-miterlimit:10;" x1="443.773" y1="131.67" x2="443.773" y2="144.682"/>
								</g>
								<g>
									
										<line style="fill:none;stroke:#FFFFFF;stroke-width:1.8653;stroke-linecap:round;stroke-miterlimit:10;" x1="459.162" y1="129.294" x2="446.149" y2="129.294"/>
									
										<line style="fill:none;stroke:#FFFFFF;stroke-width:1.8653;stroke-linecap:round;stroke-miterlimit:10;" x1="452.655" y1="122.788" x2="452.655" y2="135.8"/>
								</g>
								<g>
									
										<line style="fill:none;stroke:#FFFFFF;stroke-width:1.8653;stroke-linecap:round;stroke-miterlimit:10;" x1="468.044" y1="120.412" x2="455.031" y2="120.412"/>
									
										<line style="fill:none;stroke:#FFFFFF;stroke-width:1.8653;stroke-linecap:round;stroke-miterlimit:10;" x1="461.537" y1="113.906" x2="461.537" y2="126.918"/>
								</g>
								<g>
									
										<line style="fill:none;stroke:#FFFFFF;stroke-width:1.8653;stroke-linecap:round;stroke-miterlimit:10;" x1="476.926" y1="111.53" x2="463.913" y2="111.53"/>
									
										<line style="fill:none;stroke:#FFFFFF;stroke-width:1.8653;stroke-linecap:round;stroke-miterlimit:10;" x1="470.419" y1="105.024" x2="470.419" y2="118.036"/>
								</g>
								<g>
									
										<line style="fill:none;stroke:#FFFFFF;stroke-width:1.8653;stroke-linecap:round;stroke-miterlimit:10;" x1="485.808" y1="102.648" x2="472.795" y2="102.648"/>
									
										<line style="fill:none;stroke:#FFFFFF;stroke-width:1.8653;stroke-linecap:round;stroke-miterlimit:10;" x1="479.301" y1="96.142" x2="479.301" y2="109.154"/>
								</g>
								<g>
									
										<line style="fill:none;stroke:#FFFFFF;stroke-width:1.8653;stroke-linecap:round;stroke-miterlimit:10;" x1="494.69" y1="93.766" x2="481.677" y2="93.766"/>
									
										<line style="fill:none;stroke:#FFFFFF;stroke-width:1.8653;stroke-linecap:round;stroke-miterlimit:10;" x1="488.183" y1="87.26" x2="488.183" y2="100.272"/>
								</g>
								<g>
									
										<line style="fill:none;stroke:#FFFFFF;stroke-width:1.8653;stroke-linecap:round;stroke-miterlimit:10;" x1="503.572" y1="84.884" x2="490.559" y2="84.884"/>
									
										<line style="fill:none;stroke:#FFFFFF;stroke-width:1.8653;stroke-linecap:round;stroke-miterlimit:10;" x1="497.065" y1="78.378" x2="497.065" y2="91.39"/>
								</g>
								<g>
									
										<line style="fill:none;stroke:#FFFFFF;stroke-width:1.8653;stroke-linecap:round;stroke-miterlimit:10;" x1="512.454" y1="76.002" x2="499.441" y2="76.002"/>
									
										<line style="fill:none;stroke:#FFFFFF;stroke-width:1.8653;stroke-linecap:round;stroke-miterlimit:10;" x1="505.947" y1="69.496" x2="505.947" y2="82.508"/>
								</g>
							</g>
							<path style="fill:none;stroke:#000000;stroke-width:2.5392;stroke-miterlimit:10;" d="M518.736,70.619
								c1.29,2.693,1.033,5.865,0.395,8.783c-0.637,2.917-1.628,5.789-1.726,8.773c-0.247,7.561,5.242,14.639,4.16,22.127"/>
							<path d="M529.333,112.597c2.084,2.727,2.786,6.457,1.835,9.755c-0.369,1.282-0.967,2.485-1.407,3.744
								c-1.709,4.896-0.817,10.618,2.3,14.762c-1.142-0.096-2.252-0.542-3.144-1.261c-0.225,0.625-0.45,1.251-0.675,1.876
								c-2.146-1.335-4.171-2.865-6.043-4.564c-0.063,1.729-0.125,3.458-0.188,5.188c-2.177-1.162-3.95-3.062-4.96-5.313
								c-0.588,1.693-0.984,3.451-1.18,5.232c-1.737-1.784-3.08-3.951-3.905-6.3c-0.357,1.42-0.715,2.841-1.072,4.261
								c-2.08-3.128-2.42-7.338-0.869-10.759c0.434-0.957,1.007-1.864,1.259-2.884c0.305-1.237,0.112-2.533,0.03-3.805
								c-0.187-2.902,0.235-5.887,1.553-8.48C516.411,107.073,524.497,106.269,529.333,112.597z"/>
						</g>
					</g>
					<g>
						<g>
							<path d="M428.884,186.016c2.764,1.061,5.199,2.818,7.843,4.149c9.999,5.033,21.903,3.581,32.956,1.807
								c-2.836,5.557-5.979,11.159-10.803,15.115c-3.768,3.089-8.364,5-13.015,6.454c-7.833,2.449-16.156,3.722-24.284,2.583
								c-8.128-1.139-16.06-4.85-21.357-11.119c-2.185-2.586,6.834-14.989,9.161-16.608
								C414.608,184.763,422.996,183.756,428.884,186.016z"/>
							<path d="M428.65,211.127c6.153,4.614,11.572,10.264,18.275,14.033c6.047,3.4,13.017,5.14,19.953,4.981
								c-5.412,7.152-13.845,11.937-22.76,12.915c-8.915,0.978-18.185-1.865-25.018-7.674c-4.762-4.048-8.289-9.375-11.071-14.972
								c-1.986-3.995-8.959-17.508-0.494-17.75C414.658,202.458,423.173,207.02,428.65,211.127z"/>
							<g>
								<path style="fill:#FFFFFF;" d="M413.333,191.218c3.267,0.565,6.297,2.619,8.389,5.369c2.127,2.737,3.37,6.261,3.286,9.852
									c-0.083,3.592-1.494,7.053-3.75,9.686c-2.22,2.648-5.348,4.555-8.64,4.959c2.835-1.665,5.05-3.884,6.645-6.427
									c1.566-2.555,2.504-5.421,2.573-8.295c0.074-2.874-0.728-5.783-2.169-8.411
									C418.196,195.335,416.088,193.013,413.333,191.218z"/>
							</g>
							<g>
								<path style="fill:#FFFFFF;" d="M412.713,194.282c1.522,1.713,2.842,3.593,3.864,5.689c1.022,2.087,1.699,4.44,1.683,6.897
									c-0.048,1.219-0.251,2.456-0.637,3.598c-0.409,1.134-0.9,2.204-1.49,3.194c-1.123,1.944-2.461,4.035-4.482,5.214
									c1.396-1.823,2.141-3.865,2.997-5.935c0.835-2.062,1.491-4.052,1.499-6.111c0.052-2.065-0.436-4.158-1.093-6.24
									C414.375,198.507,413.485,196.443,412.713,194.282z"/>
							</g>
							<g>
								<path style="fill:#FFFFFF;" d="M423.138,199.096c10.052,5.424,22.953,5.977,33.828,1.047
									c-10.394,5.872-23.751,6.716-35.202,1.814L423.138,199.096z"/>
							</g>
							<g>
								<path style="fill:#FFFFFF;" d="M421.086,214.338c3.457,5.717,7.348,11.219,12.559,15.366
									c2.59,2.056,5.518,3.731,8.676,4.826c3.152,1.093,6.559,1.585,9.935,1.191c-3.334,0.658-6.839,0.439-10.164-0.431
									c-3.332-0.871-6.505-2.365-9.384-4.305c-2.877-1.939-5.466-4.289-7.811-6.831c-2.348-2.544-4.463-5.281-6.46-8.068
									L421.086,214.338z"/>
							</g>
						</g>
						<g>
							<path d="M229.208,187.559c1.882-9.03,6.114-17.102,11.89-24.119c10.172-12.357,25.133-21.444,40.491-26.733
								c30.253-10.418,65.675-8.948,92.105,9.085c6.489,4.427,12.256,9.947,17.091,16.196c9.92,12.821,15.917,28.712,16.179,44.544
								c0.13,7.884-1.162,15.753-4.101,23.221c-2.118,5.381-4.996,10.478-6.55,16.047c-0.683,2.446-1.109,4.982-2.142,7.303
								c-1.722,3.871-5.156,6.942-9.195,8.222c1.303,22.894-19.71,38.653-39.457,44.905c-19.492,6.171-40.936,5.447-60.177-1.309
								c-8.53-2.995-19.869-7.466-26.224-14.177c-5.075-5.359-3.845-14.868-10.614-18.92c-4.671-2.796-6.814-7.999-4.621-13.068
								c-5.978-3.496-6.787-4.247-7.28-11.781c-0.164-2.501-1.185-4.852-1.976-7.23c-2.637-7.93-2.779-16.547-4.509-24.619
								c-1.208-5.637-2.002-11.489-1.96-17.305C228.185,194.371,228.505,190.933,229.208,187.559z"/>
							<g>
								<path style="fill:#DD2828;" d="M227.652,198.626c-1.38-3.32-1.624-6.811-1.583-10.217c0.068-1.692,0.238-3.456,0.578-5.154
									c0.345-1.701,0.821-3.374,1.422-4.997c1.206-3.244,2.911-6.294,5.074-8.984c2.175-2.674,4.75-5.058,7.965-6.647l0.319,0.263
									c-1.984,2.56-3.798,5.246-5.403,8.051c-1.607,2.804-2.964,5.748-4.089,8.771c-1.165,3.012-2.052,6.122-2.665,9.299
									c-0.311,1.588-0.564,3.187-0.774,4.79c-0.217,1.602-0.382,3.214-0.43,4.828L227.652,198.626z"/>
							</g>
							<path style="fill:#FFFFFF;" d="M241.477,236.662c-0.079-0.424-0.142-0.851-0.186-1.282
								c-1.322-12.923,13.794-12.811,22.662-10.475c13.537,3.566,26.209,10.197,39.837,13.355
								c12.079,2.799,26.361,1.571,37.922-2.906c9.727-3.767,18.74-10.399,29.422-10.428c8.708-0.023,16.762,3.806,15.577,14.001
								c-0.446,3.837-2.283,7.384-4.489,10.555c-8.902,12.793-25.304,20.568-40.569,17.417c-5.535-1.142-10.703-3.583-16.058-5.389
								c-14.383-4.85-27.044,0.884-41.128,3.722c-8.391,1.691-18.156-0.352-25.327-5.056c-5.463-3.583-9.873-8.601-13.437-14.076
								C243.812,243.193,242.111,240.051,241.477,236.662z"/>
							<g>
								<path d="M267.396,247.413c3.378,0.558,6.04,1.342,8.532,1.962c2.472,0.644,4.679,1.157,6.812,1.554
									c2.062,0.374,4.192,0.634,6.497,0.716c2.333,0.075,4.773,0.026,8.082-0.668l0.406,0.373
									c-0.948,1.097-2.074,2.044-3.311,2.816c-1.249,0.752-2.604,1.321-4.003,1.725c-2.801,0.803-5.78,0.949-8.659,0.46
									c-2.865-0.549-5.581-1.68-8.052-3.159c-1.237-0.74-2.419-1.565-3.542-2.461c-1.107-0.916-2.155-1.896-3.148-2.924
									L267.396,247.413z"/>
							</g>
							<g>
								<path d="M359.444,247.809c-0.993,1.028-2.042,2.007-3.148,2.923c-1.122,0.896-2.305,1.721-3.541,2.461
									c-2.471,1.479-5.188,2.608-8.052,3.159c-2.879,0.492-5.859,0.344-8.659-0.459c-1.398-0.404-2.753-0.973-4.003-1.725
									c-1.236-0.773-2.362-1.72-3.31-2.817l0.406-0.373c3.318,0.685,5.755,0.728,8.086,0.656c2.304-0.082,4.43-0.343,6.494-0.704
									c2.136-0.385,4.346-0.899,6.819-1.543c2.494-0.618,5.156-1.407,8.525-1.973L359.444,247.809z"/>
							</g>
							<g>
								<path d="M264.491,237.747c2.606-1.66,5.697-2.538,8.812-2.837c3.129-0.255,6.298,0.066,9.36,0.818
									c3.042,0.765,6.089,1.718,8.755,3.335c2.671,1.6,5.144,3.441,7.353,5.669l-0.143,0.236c-3.002-0.93-5.747-2.245-8.483-3.459
									c-2.735-1.196-5.292-2.714-8.102-3.664c-2.783-0.957-5.722-1.53-8.687-1.557c-2.964-0.074-5.966,0.459-8.734,1.703
									L264.491,237.747z"/>
							</g>
							<g>
								<path d="M361.74,238.311c-2.754,0.001-5.498,0.034-8.199,0.331c-2.7,0.258-5.36,0.75-7.875,1.587
									c-2.526,0.81-4.722,2.292-7.305,3.326c-2.556,1.03-5.159,1.963-7.965,2.475l-0.12-0.248
									c2.144-1.882,4.491-3.344,6.885-4.709c1.199-0.666,2.446-1.279,3.786-1.767c1.341-0.477,2.738-0.891,4.128-1.202
									c2.79-0.626,5.616-0.852,8.407-0.839c2.794,0.071,5.554,0.334,8.281,0.771L361.74,238.311z"/>
							</g>
							<g>
								<path style="fill:#FFFFFF;" d="M236.693,222.99c0.102-1.019,0.373-2.04,0.814-3.006c0.45-0.96,1.077-1.835,1.779-2.649
									c1.456-1.582,3.302-2.802,5.32-3.596c2.007-0.829,4.243-1.134,6.383-1.13c2.157,0.029,4.273,0.399,6.313,0.91
									c2.029,0.563,3.987,1.264,5.89,2.037c1.89,0.811,3.748,1.607,5.58,2.439c3.683,1.603,7.37,3.083,11.43,3.688
									c-4.101,0.559-8.314-0.415-12.192-1.676c-3.918-1.254-7.62-2.853-11.412-3.824c-1.883-0.524-3.789-0.861-5.692-0.972
									c-0.948-0.054-1.91-0.053-2.833,0.033c-0.928,0.116-1.859,0.273-2.774,0.523C241.693,216.806,238.19,219.118,236.693,222.99
									z"/>
							</g>
							<g>
								<path style="fill:#FFFFFF;" d="M393.116,241.489c1.125-6.092-0.412-12.423-4.145-16.935c-1.862-2.253-4.2-4.101-6.814-5.342
									c-2.607-1.253-5.471-1.872-8.389-1.904c-2.92-0.064-5.87,0.431-8.76,1.207c-2.908,0.754-5.722,1.874-8.561,3.035
									c-5.634,2.363-11.354,5.132-17.498,6.251c5.802-2.222,11.019-5.425,16.602-8.207c2.777-1.415,5.702-2.639,8.739-3.589
									c3.051-0.903,6.254-1.476,9.524-1.452c3.256,0.085,6.575,0.81,9.504,2.33c2.896,1.547,5.486,3.69,7.355,6.371
									C394.531,228.554,395.371,235.692,393.116,241.489z"/>
							</g>
							<g>
								<path style="fill:#FFFFFF;" d="M253.054,264.627c1.205,1.261,2.532,2.364,3.948,3.314c1.44,0.919,2.962,1.68,4.541,2.284
									c3.165,1.204,6.525,1.777,9.887,1.947c1.685,0.063,3.369,0.011,5.047-0.099c1.672-0.145,3.353-0.39,5.022-0.695
									c3.341-0.616,6.659-1.464,9.974-2.419c3.328-0.91,6.664-1.9,10.067-2.742c3.406-0.805,6.895-1.509,10.433-1.741
									c1.769-0.109,3.543-0.169,5.316-0.075c1.772,0.113,3.539,0.311,5.277,0.667c1.731,0.393,3.435,0.895,5.059,1.585
									c1.617,0.71,3.145,1.591,4.548,2.621c-1.558-0.782-3.166-1.411-4.805-1.902c-1.651-0.458-3.327-0.782-5.016-0.968
									c-3.382-0.373-6.793-0.218-10.16,0.211c-1.683,0.237-3.356,0.544-5.024,0.884c-1.661,0.365-3.321,0.788-4.975,1.245
									c-3.314,0.901-6.625,1.905-9.978,2.868c-3.366,0.914-6.781,1.78-10.283,2.332c-1.755,0.254-3.518,0.445-5.309,0.533
									c-1.787,0.069-3.576,0.015-5.353-0.169c-1.774-0.21-3.541-0.489-5.264-0.968c-1.716-0.495-3.404-1.092-5.004-1.883
									c-1.583-0.822-3.099-1.767-4.454-2.908C255.205,267.392,254.031,266.067,253.054,264.627z"/>
							</g>
							<g>
								<path style="fill:#FFFFFF;" d="M320.893,273.806c5.215,0.914,10.375,1.871,15.548,2.45
									c5.169,0.561,10.35,0.802,15.464,0.327c2.552-0.201,5.086-0.616,7.575-1.211c2.5-0.56,4.933-1.378,7.316-2.328
									c4.744-1.953,9.177-4.728,12.975-8.422c-2.915,4.446-7.259,7.961-12.079,10.378c-2.405,1.243-4.966,2.158-7.566,2.902
									c-2.612,0.708-5.288,1.168-7.981,1.427c-5.384,0.445-10.79,0.064-16.025-0.952
									C330.879,277.375,325.791,275.815,320.893,273.806z"/>
							</g>
						</g>
					</g>
				</g>
				<g>
					<path style="fill:#DD2828;" d="M390.962,161.41c2.47,1.943,4.599,4.242,6.63,6.65c0.942,1.248,1.909,2.496,2.783,3.807
						c0.915,1.29,1.658,2.676,2.47,4.035c0.758,1.385,1.523,2.777,2.125,4.24c0.667,1.438,1.238,2.916,1.826,4.393
						c1.034,3.002,1.882,6.074,2.537,9.195c0.514,3.146,0.933,6.317,1.017,9.513c-0.005,3.201-0.08,6.389-0.631,9.528
						c-0.964,6.257-3.005,12.429-6.588,17.6l-0.385-0.151c1.071-2.828,1.89-5.747,2.492-8.707c0.61-2.959,1.016-5.959,1.221-8.973
						c0.096-1.507,0.148-3.017,0.155-4.527c0.006-1.51-0.083-3.018-0.149-4.526c-0.214-3.012-0.622-6.008-1.186-8.973
						c-0.572-2.965-1.325-5.893-2.216-8.78c-0.919-2.879-2.009-5.701-3.225-8.468c-2.496-5.507-5.574-10.75-9.202-15.6
						L390.962,161.41z"/>
				</g>
			</g>
		</g>
	</g>
</g>
</svg>
